PathFileType	4	(X/Y/Z)	G:\GRF\jawan data\CompiledGRF\03. Mohit Kumar\0231~ac~Walking 06_markers.trc
DataRate	CameraRate	NumFrames	NumMarkers	Units	OrigDataRate	OrigDataStartFrame	OrigNumFrames
100.000000	100.000000	11	18	mm	100.000000	732	977
Frame#	Time	c7			r should			l should			sacrum			r asis			r bar 1			r knee 1			r bar 2			r mall			r heel			r met			l asis			l bar 1			l knee 1			l bar 2			l mall			l heel			l met			
		X1	Y1	Z1	X2	Y2	Z2	X3	Y3	Z3	X4	Y4	Z4	X5	Y5	Z5	X6	Y6	Z6	X7	Y7	Z7	X8	Y8	Z8	X9	Y9	Z9	X10	Y10	Z10	X11	Y11	Z11	X12	Y12	Z12	X13	Y13	Z13	X14	Y14	Z14	X15	Y15	Z15	X16	Y16	Z16	X17	Y17	Z17	X18	Y18	Z18	

733	7.32	2026.475952148438	1503.72607421875	248.5438232421875	2087.045166015625	1463.81640625	409.43603515625	2066.34130859375	1465.188842773438	83.74126434326172	1940.327270507813	1043.661376953125	240.0220642089844	2117.097412109375	1010.711669921875	363.9225769042969	2037.8203125	597.3867797851563	419.90869140625	2047.390258789063	511.6764831542969	364.8892517089844	1972.71826171875	191.1233367919922	377.5129089355469	1972.6064453125	66.94096374511719	311.9953308105469	1913.6142578125	34.68186569213867	265.0494384765625	2118.98486328125	29.57582473754883	312.5144653320313	2110.741455078125	1019.040832519531	117.9373321533203	2212.197509765625	626.6712036132813	26.03263664245605	2251.029052734375	540.4727172851563	76.11174774169922	2102.953125	299.1225891113281	27.23392868041992	2027.662231445313	140.8146362304688	92.79904937744141	1957.874877929688	123.2654724121094	148.8448944091797	2143.978271484375	62.16222381591797	114.1785888671875	
734	7.33	2036.513061523438	1503.0087890625	248.4987335205078	2095.904541015625	1463.093505859375	409.4679260253906	2075.16552734375	1464.19970703125	83.70808410644531	1948.216796875	1043.329833984375	239.9554138183594	2125.107421875	1009.8212890625	364.0733337402344	2041.107177734375	597.4552612304688	420.1311950683594	2049.374755859375	511.4532775878906	365.1832275390625	1972.861572265625	191.3494720458984	377.4254150390625	1972.656494140625	67.02109527587891	311.8581848144531	1913.538452148438	34.77462768554688	264.9208984375	2119.0322265625	29.55043983459473	312.6166381835938	2119.084228515625	1018.557800292969	118.0412750244141	2222.504638671875	627.4063110351563	26.02515029907227	2262.814453125	542.200439453125	76.21246337890625	2125.60546875	294.6609802246094	26.81469535827637	2058.12939453125	132.6612548828125	92.29075622558594	1989.206787109375	111.4728927612305	148.5673828125	2178.34765625	59.92560195922852	113.0162658691406	
735	7.34	2044.809326171875	1502.290771484375	248.4265899658203	2104.98388671875	1462.38525390625	409.3993225097656	2084.260498046875	1463.205444335938	83.58185577392578	1955.914916992188	1042.892822265625	239.8535614013672	2133.328125	1008.832214355469	364.1139221191406	2044.432373046875	597.4916381835938	420.2288513183594	2051.54931640625	511.3833618164063	365.5483093261719	1972.99658203125	191.5059967041016	377.4712829589844	1972.709350585938	67.08036041259766	311.6584167480469	1913.664916992188	34.89411544799805	264.830322265625	2119.088623046875	29.53339958190918	312.6458129882813	2127.301513671875	1017.91259765625	118.0752258300781	2231.529296875	627.6632690429688	25.97153663635254	2273.7470703125	543.5326538085938	76.24718475341797	2147.914306640625	290.4738464355469	26.48840522766113	2088.847412109375	124.7168197631836	91.74855041503906	2020.686401367188	99.95857238769531	147.8901824951172	2212.766845703125	57.98439407348633	112.1390228271484	
736	7.350000000000001	2053.4580078125	1501.70654296875	248.3283843994141	2113.9501953125	1461.592529296875	409.3385620117188	2093.213623046875	1462.09814453125	83.4599609375	1964.343627929688	1042.334594726563	239.9217224121094	2141.706787109375	1007.770629882813	364.0613403320313	2047.866821289063	597.4744262695313	420.4072570800781	2053.72802734375	511.288330078125	365.8872375488281	1973.252319335938	191.6489105224609	377.5244750976563	1972.809204101563	67.22195434570313	311.675048828125	1912.998901367188	35.20610809326172	264.6769104003906	2119.1884765625	29.54670715332031	312.7230529785156	2135.4892578125	1017.21142578125	118.1172790527344	2239.53857421875	627.4650268554688	26.03139877319336	2283.9716796875	544.45068359375	76.31221008300781	2169.61474609375	286.0774841308594	26.10044479370117	2119.9638671875	117.1937408447266	91.11692810058594	2052.35205078125	88.84270477294922	147.0267028808594	2247.232421875	56.50421905517578	111.6528930664063	
737	7.36	2063.419921875	1500.83642578125	248.2296600341797	2122.7529296875	1460.6337890625	409.1461181640625	2102.072998046875	1460.996337890625	83.34694671630859	1972.788452148438	1042.02294921875	240.1015014648438	2150.19091796875	1006.664611816406	363.9573364257813	2051.285400390625	597.2923583984375	420.6444702148438	2055.98193359375	511.1300964355469	366.1632995605469	1973.765380859375	191.87646484375	377.6596069335938	1972.92333984375	67.43392944335938	311.7398071289063	1912.584594726563	35.54682540893555	264.6936645507813	2119.22314453125	29.51920700073242	312.7821350097656	2143.62109375	1016.474487304688	118.0987167358398	2246.468017578125	626.6248168945313	26.20888519287109	2293.529296875	544.9132690429688	76.44184112548828	2191.738525390625	282.073974609375	25.80200576782227	2151.433349609375	110.2583541870117	90.44056701660156	nan	nan	nan	2281.560791015625	55.48553085327148	111.6806716918945	
738	7.37	2071.3408203125	1499.977172851563	247.9111328125	2131.803955078125	1459.532592773438	408.9412841796875	2110.77490234375	1459.893920898438	83.16326141357422	1980.845336914063	1041.799682617188	240.4814453125	2158.751708984375	1005.493774414063	363.7822875976563	2054.885498046875	596.98828125	420.8719787597656	2058.552734375	511.011962890625	366.4401550292969	1974.355102539063	192.1332550048828	377.8223876953125	1973.0888671875	67.69057464599609	311.7108459472656	1913.631469726563	35.4299201965332	264.7464904785156	2119.24658203125	29.47909927368164	312.8319396972656	2151.829345703125	1015.656005859375	118.0644760131836	2252.76611328125	625.2691040039063	26.45339393615723	2302.423095703125	544.8810424804688	76.72169494628906	2213.91162109375	277.9476928710938	25.44905090332031	2183.472412109375	104.1107559204102	89.58222198486328	nan	nan	nan	2315.54833984375	55.08237457275391	112.2354278564453	
739	7.38	2079.548828125	1499.006103515625	247.6360473632813	2140.8740234375	1458.392822265625	408.6954040527344	2119.55029296875	1458.765258789063	82.88744354248047	1988.653564453125	1041.098388671875	240.8240509033203	2167.379150390625	1004.248596191406	363.5742797851563	2059.03271484375	596.821044921875	421.0406799316406	2061.431396484375	510.9084777832031	366.6749267578125	1975.0771484375	192.4470062255859	377.9663391113281	1973.13525390625	67.85497283935547	311.7493286132813	1913.100830078125	35.97974014282227	264.6168823242188	2119.283935546875	29.42647743225098	312.9243774414063	2160.01318359375	1014.7099609375	117.9950180053711	2258.5595703125	623.2789916992188	26.87481880187988	2310.7734375	544.4508666992188	77.19418334960938	2235.724365234375	274.0071411132813	25.27957725524902	2215.39892578125	98.58274841308594	88.939453125	nan	nan	nan	2349.259765625	55.85548400878906	112.8930435180664	
740	7.390000000000001	2089.57666015625	1497.770629882813	247.39208984375	2149.973876953125	1457.171875	408.3920593261719	2128.366455078125	1457.60205078125	82.50479125976563	1998.091796875	1039.919799804688	241.0752868652344	2176.011962890625	1002.926086425781	363.3234252929688	2063.201171875	596.5274658203125	421.2320556640625	2064.502197265625	510.6946716308594	366.9101867675781	1975.849975585938	192.8336639404297	378.0379333496094	1973.200561523438	68.07672119140625	311.7014770507813	1913.007934570313	36.3807487487793	264.5512390136719	2119.36669921875	29.41987991333008	313.0069885253906	2168.272705078125	1013.676513671875	117.869743347168	2264.052978515625	620.678955078125	27.30920219421387	2318.67626953125	543.6873168945313	77.84363555908203	2257.587890625	270.3391418457031	25.12963676452637	2246.246337890625	93.90427398681641	88.63328552246094	nan	nan	nan	2382.57421875	57.98321914672852	113.4403762817383	
741	7.4	2098.59716796875	1496.585083007813	247.1851959228516	2159.306396484375	1455.87646484375	407.9999389648438	2137.225341796875	1456.378295898438	82.09414672851563	2007.44873046875	1038.717895507813	241.1885528564453	2184.745849609375	1001.592407226563	363.0368347167969	2067.5966796875	596.2334594726563	421.4485168457031	2067.840576171875	510.4422607421875	367.1319274902344	1976.508422851563	193.1334228515625	378.1257934570313	1973.282470703125	68.33329772949219	311.6786499023438	1913.113403320313	36.70611953735352	264.518310546875	2119.510498046875	29.49488830566406	313.1212463378906	2176.495849609375	1012.506469726563	117.7226028442383	2269.873779296875	617.909423828125	27.68475151062012	2326.165283203125	542.5960083007813	78.60227966308594	2279.255126953125	267.0682983398438	25.15462112426758	2276.2275390625	90.11493682861328	88.53786468505859	nan	nan	nan	2414.104248046875	59.98086166381836	114.0558013916016	
742	7.41	2107.43896484375	1495.2099609375	246.8324432373047	2168.8837890625	1454.591552734375	407.5409851074219	2145.994873046875	1455.07470703125	81.60198974609375	2015.871704101563	1037.47509765625	241.3279571533203	2193.470947265625	1000.225158691406	362.7682800292969	2072.536865234375	596.0994262695313	421.6370544433594	2071.581298828125	510.2419738769531	367.319091796875	1977.241088867188	193.44921875	378.1846618652344	1973.266479492188	68.50662231445313	311.6844787597656	1912.492797851563	37.20286560058594	264.4869689941406	2119.573974609375	29.47799301147461	313.2166137695313	2184.862548828125	1011.270751953125	117.5237808227539	2276.378173828125	615.2178955078125	27.89738082885742	2333.376708984375	541.1658935546875	79.47103118896484	2300.44970703125	264.4613037109375	25.34002876281738	2305.001953125	87.12184143066406	88.70490264892578	nan	nan	nan	2444.248779296875	62.67488861083984	114.4404449462891	
743	7.42	2115.801513671875	1494.007934570313	246.3477478027344	2178.234619140625	1453.135375976563	406.9597778320313	2154.95703125	1453.721801757813	81.04647827148438	2024.680419921875	1036.149291992188	241.4889831542969	2202.12548828125	998.8037719726563	362.464599609375	2077.72509765625	595.91650390625	421.746337890625	2075.63623046875	509.9480895996094	367.4229125976563	1978.251708984375	193.7702026367188	378.1756896972656	1973.413452148438	68.77138519287109	311.7137451171875	1912.022338867188	37.77667236328125	264.3387451171875	2119.581298828125	29.43698692321777	313.274169921875	2193.2021484375	1009.913208007813	117.2557373046875	2283.564453125	612.6725463867188	28.08499908447266	2340.536865234375	539.490478515625	80.47257232666016	2320.22265625	262.048828125	25.63194465637207	2332.458251953125	85.12151336669922	89.05670166015625	nan	nan	nan	2472.466552734375	65.15731811523438	114.551383972168	
